<?xml version="1.0" encoding="UTF-8" standalone="no"?>
<svg
   xmlns:dc="http://purl.org/dc/elements/1.1/"
   xmlns:cc="http://creativecommons.org/ns#"
   xmlns:rdf="http://www.w3.org/1999/02/22-rdf-syntax-ns#"
   xmlns:svg="http://www.w3.org/2000/svg"
   xmlns="http://www.w3.org/2000/svg"
   xmlns:sodipodi="http://sodipodi.sourceforge.net/DTD/sodipodi-0.dtd"
   xmlns:inkscape="http://www.inkscape.org/namespaces/inkscape"
   id="KR"
   width="47.999001"
   height="14.803"
   viewBox="0 0 47.998999 14.803"
   version="1.1"
   sodipodi:docname="appstore.svg"
   inkscape:version="1.0.2 (e86c870879, 2021-01-15, custom)">
  <metadata
     id="metadata57">
    <rdf:RDF>
      <cc:Work
         rdf:about="">
        <dc:format>image/svg+xml</dc:format>
        <dc:type
           rdf:resource="http://purl.org/dc/dcmitype/StillImage" />
        <dc:title>Download_on_the_App_Store_Badge_KR_RGB_blk_100317</dc:title>
      </cc:Work>
    </rdf:RDF>
  </metadata>
  <defs
     id="defs55" />
  <sodipodi:namedview
     pagecolor="#ffffff"
     bordercolor="#666666"
     borderopacity="1"
     objecttolerance="10"
     gridtolerance="10"
     guidetolerance="10"
     inkscape:pageopacity="0"
     inkscape:pageshadow="2"
     inkscape:window-width="1920"
     inkscape:window-height="1017"
     id="namedview53"
     showgrid="false"
     inkscape:zoom="7.9791211"
     inkscape:cx="64.850357"
     inkscape:cy="20"
     inkscape:window-x="-8"
     inkscape:window-y="-1"
     inkscape:window-maximized="1"
     inkscape:current-layer="KR" />
  <title
     id="title2">Download_on_the_App_Store_Badge_KR_RGB_blk_100317</title>
  <g
     id="g50"
     transform="scale(0.370075)">
    <g
       id="g8">
      <path
         d="M 120.17141,0 H 9.53468 C 9.16798,0 8.80568,0 8.43995,0.002 8.1338,0.004 7.83009,0.00981 7.521,0.0147 a 13.21476,13.21476 0 0 0 -2.0039,0.17671 6.66509,6.66509 0 0 0 -1.90088,0.627 6.43779,6.43779 0 0 0 -1.61865,1.17866 6.25844,6.25844 0 0 0 -1.17822,1.62109 6.60119,6.60119 0 0 0 -0.625,1.90332 12.993,12.993 0 0 0 -0.1792,2.002 C 0.00587,7.83008 0.00489,8.1377 0,8.44434 V 31.5586 c 0.00489,0.3105 0.00587,0.6113 0.01515,0.9219 a 12.99232,12.99232 0 0 0 0.1792,2.0019 6.58756,6.58756 0 0 0 0.625,1.9043 6.20778,6.20778 0 0 0 1.17822,1.6143 6.27445,6.27445 0 0 0 1.61865,1.1787 6.70082,6.70082 0 0 0 1.90088,0.6308 13.45514,13.45514 0 0 0 2.0039,0.1768 C 7.83009,39.9941 8.1338,39.998 8.43995,39.998 8.80567,40 9.168,40 9.53468,40 h 110.63673 c 0.3594,0 0.7246,0 1.084,-0.002 0.3047,0 0.6172,-0.0039 0.9219,-0.0107 a 13.279,13.279 0 0 0 2,-0.1768 6.80432,6.80432 0 0 0 1.9082,-0.6308 6.27742,6.27742 0 0 0 1.6172,-1.1787 6.39482,6.39482 0 0 0 1.1816,-1.6143 6.60413,6.60413 0 0 0 0.6191,-1.9043 13.50643,13.50643 0 0 0 0.1856,-2.0019 c 0.004,-0.3106 0.004,-0.6114 0.004,-0.9219 0.008,-0.3633 0.008,-0.7246 0.008,-1.0938 V 9.53613 c 0,-0.36621 0,-0.72949 -0.008,-1.09179 0,-0.30664 0,-0.61426 -0.004,-0.9209 a 13.5071,13.5071 0 0 0 -0.1856,-2.002 6.6177,6.6177 0 0 0 -0.6191,-1.90332 6.46619,6.46619 0 0 0 -2.7988,-2.7998 6.76754,6.76754 0 0 0 -1.9082,-0.627 13.04394,13.04394 0 0 0 -2,-0.17676 c -0.3047,-0.00488 -0.6172,-0.01074 -0.9219,-0.01269 C 120.896,0 120.53081,0 120.17141,0 Z"
         style="fill:#a6a6a6"
         id="path4" />
      <path
         d="m 8.44483,39.125 c -0.30468,0 -0.602,-0.0039 -0.90429,-0.0107 A 12.68714,12.68714 0 0 1 5.6714,38.9512 5.88381,5.88381 0 0 1 4.01466,38.4033 5.40573,5.40573 0 0 1 2.61766,37.3867 5.32082,5.32082 0 0 1 1.59715,35.9902 5.72186,5.72186 0 0 1 1.05415,34.333 12.41351,12.41351 0 0 1 0.88765,32.458 C 0.88131,32.2471 0.87301,31.5449 0.87301,31.5449 V 8.44434 c 0,0 0.00884,-0.69141 0.01469,-0.89454 A 12.37039,12.37039 0 0 1 1.05323,5.67773 5.7555,5.7555 0 0 1 1.59669,4.01563 5.37349,5.37349 0 0 1 2.61183,2.61768 5.56543,5.56543 0 0 1 4.01417,1.59521 5.82309,5.82309 0 0 1 5.66749,1.05127 12.58589,12.58589 0 0 1 7.543,0.88721 L 8.44532,0.875 h 112.80519 l 0.9131,0.0127 a 12.38492,12.38492 0 0 1 1.8584,0.16259 5.93833,5.93833 0 0 1 1.6709,0.54785 5.59375,5.59375 0 0 1 2.415,2.41993 5.76267,5.76267 0 0 1 0.5352,1.64892 12.995,12.995 0 0 1 0.1738,1.88721 c 0.003,0.2832 0.003,0.5874 0.003,0.89014 0.008,0.375 0.008,0.73193 0.008,1.09179 V 30.4648 c 0,0.3633 0,0.7178 -0.008,1.0752 0,0.3252 0,0.6231 -0.004,0.9297 a 12.73126,12.73126 0 0 1 -0.1709,1.8535 5.739,5.739 0 0 1 -0.54,1.67 5.48029,5.48029 0 0 1 -1.0156,1.3857 5.4129,5.4129 0 0 1 -1.3994,1.0225 5.86168,5.86168 0 0 1 -1.668,0.5498 12.54218,12.54218 0 0 1 -1.8692,0.1631 c -0.2929,0.0068 -0.5996,0.0107 -0.8974,0.0107 l -1.084,0.002 z"
         id="path6" />
    </g>
    <g
       id="g22">
      <path
         d="m 37.92678,25.28418 h -2.51367 v 3.48926 a 16.90771,16.90771 0 0 0 3.10254,-0.22852 l 0.09229,0.752 a 21.76036,21.76036 0 0 1 -3.56836,0.25879 h -0.54492 v -5.03227 h 3.43213 z m 2.0874,1.40137 h 1.08545 v 0.76563 h -1.08545 v 3.84472 h -0.92725 v -7.47559 h 0.92725 z"
         style="fill:#ffffff"
         id="path10" />
      <path
         d="m 48.55471,27.50391 v 0.73828 h -2.85645 v 1.41016 h -0.936 v -1.41016 h -2.96634 v -0.73828 z m -5.97217,-1.97363 c 0,-0.86621 1.00635,-1.49414 2.59717,-1.49414 1.59082,0 2.606,0.62793 2.606,1.49414 0,0.87891 -1.01514,1.50684 -2.59717,1.50684 -1.59965,-1e-5 -2.606,-0.62794 -2.606,-1.50685 z m 0.97119,4.8291 h 4.22314 v 0.73438 h -5.1416 v -2.127 h 0.91846 z m -0.02637,-4.82031 c 0,0.47852 0.69873,0.78711 1.64795,0.78711 0.98,0 1.65674,-0.30859 1.65674,-0.78711 0,-0.48828 -0.67236,-0.7998 -1.65234,-0.7998 -0.95362,-10e-6 -1.65235,0.31151 -1.65235,0.79979 z"
         style="fill:#ffffff"
         id="path12" />
      <path
         d="m 56.15432,29.61328 v 0.73828 h -6.75879 v -0.73828 h 2.91357 v -1.21777 h -2.04785 v -2.45215 h 4.1001 V 25.0332 H 50.24807 V 24.291 h 5.04932 v 2.39941 H 51.1841 v 0.9668 h 4.30225 v 0.73828 H 53.232 v 1.21777 z"
         style="fill:#ffffff"
         id="path14" />
      <path
         d="m 63.75441,30.30273 h -6.75878 v -0.73828 h 6.75879 z M 62.88429,25.20117 H 58.7842 v 2.05664 h 4.15723 v 0.74609 h -5.07129 v -3.55077 h 5.01416 z"
         style="fill:#ffffff"
         id="path16" />
      <path
         d="M 71.17531,26.35645 H 66.81594 V 25.623 h 4.35938 z M 69.03469,29.877 a 1.59929,1.59929 0 1 1 1.79785,-1.587 1.63406,1.63406 0 0 1 -1.79785,1.587 z m 1.12988,-4.82129 H 67.897 v -0.751 h 2.26758 z m -1.12988,4.09082 a 0.86055,0.86055 0 1 0 0,-1.71777 0.85949,0.85949 0 1 0 0,1.71777 z m 3.65625,-2.23633 h 1.07226 v 0.75977 h -1.07226 v 3.626 H 71.76907 V 23.8252 h 0.92188 z"
         style="fill:#ffffff"
         id="path18" />
      <path
         d="m 74.99563,29.9375 -0.52246,-0.72461 a 4.92464,4.92464 0 0 0 2.93555,-3.84082 h -2.51856 v -0.76465 h 3.50293 a 5.96739,5.96739 0 0 1 -3.39746,5.33008 z m 5.64258,1.36328 h -0.92676 v -7.48047 h 0.92676 z"
         style="fill:#ffffff"
         id="path20" />
    </g>
    <g
       id="g44">
      <path
         d="m 41.16018,16.5542 h -4.04493 l -0.9707,2.86816 h -1.71387 l 3.832,-10.61328 H 40.042 l 3.832,10.61328 H 42.13088 Z M 37.5342,15.23 h 3.207 l -1.582,-4.65527 h -0.04395 z"
         style="fill:#ffffff"
         id="path24" />
      <path
         d="m 52.16408,15.5542 c 0,2.4043 -1.28711,3.94922 -3.22852,3.94922 A 2.62169,2.62169 0 0 1 46.501,18.1499 h -0.03613 v 3.832 H 44.876 V 11.68506 h 1.53711 v 1.28711 h 0.0293 A 2.74353,2.74353 0 0 1 48.90627,11.604 c 1.96387,0 3.25781,1.55176 3.25781,3.9502 z m -1.63281,0 c 0,-1.56738 -0.80859,-2.59668 -2.04395,-2.59668 -1.21387,0 -2.03027,1.05176 -2.03027,2.59668 0,1.55859 0.81641,2.60352 2.03027,2.60352 1.23536,-10e-6 2.04395,-1.02247 2.04395,-2.60352 z"
         style="fill:#ffffff"
         id="path26" />
      <path
         d="m 60.69533,15.5542 c 0,2.4043 -1.28711,3.94922 -3.22852,3.94922 A 2.62169,2.62169 0 0 1 55.03224,18.1499 h -0.03613 v 3.832 H 53.40725 V 11.68506 h 1.53711 v 1.28711 h 0.0293 A 2.74353,2.74353 0 0 1 57.43752,11.604 c 1.96387,0 3.25781,1.55176 3.25781,3.9502 z m -1.63281,0 c 0,-1.56738 -0.80859,-2.59668 -2.04395,-2.59668 -1.21387,0 -2.03027,1.05176 -2.03027,2.59668 0,1.55859 0.81641,2.60352 2.03027,2.60352 1.23536,-10e-6 2.04395,-1.02247 2.04395,-2.60352 z"
         style="fill:#ffffff"
         id="path28" />
      <path
         d="m 66.354,16.46533 c 0.11816,1.05176 1.13965,1.74316 2.53711,1.74316 1.33887,0 2.30273,-0.69141 2.30273,-1.63965 0,-0.82422 -0.58105,-1.31641 -1.957,-1.65527 l -1.375,-0.33105 c -1.94922,-0.4707 -2.85352,-1.38184 -2.85352,-2.86035 0,-1.83105 1.5957,-3.08887 3.86133,-3.08887 2.24316,0 3.78027,1.25781 3.832,3.08887 h -1.60349 c -0.0957,-1.05957 -0.9707,-1.69922 -2.251,-1.69922 -1.2793,0 -2.1543,0.64746 -2.1543,1.58887 0,0.75 0.55859,1.19141 1.92676,1.5293 l 1.16895,0.28711 c 2.17676,0.51465 3.082,1.38965 3.082,2.94238 0,1.98535 -1.58105,3.22852 -4.09668,3.22852 -2.35352,0 -3.94189,-1.21387 -4.04443,-3.13379 z"
         style="fill:#ffffff"
         id="path30" />
      <path
         d="m 76.29934,9.854 v 1.83105 H 77.77 v 1.25781 h -1.4707 v 4.26564 c 0,0.66211 0.29395,0.9707 0.94141,0.9707 a 4.85071,4.85071 0 0 0 0.52148,-0.03613 v 1.25 a 4.38318,4.38318 0 0 1 -0.88184,0.07324 c -1.56738,0 -2.17773,-0.58789 -2.17773,-2.08887 v -4.43457 h -1.125 v -1.25781 h 1.125 V 9.854 Z"
         style="fill:#ffffff"
         id="path32" />
      <path
         d="m 78.64016,15.5542 c 0,-2.43457 1.43359,-3.96484 3.66992,-3.96484 2.24316,0 3.66992,1.53027 3.66992,3.96484 0,2.44141 -1.41895,3.96387 -3.66992,3.96387 -2.25097,0 -3.66992,-1.52246 -3.66992,-3.96387 z m 5.72168,0 c 0,-1.66992 -0.76465,-2.65527 -2.05176,-2.65527 -1.28711,0 -2.05176,0.99219 -2.05176,2.65527 0,1.67676 0.76465,2.6543 2.05176,2.6543 1.28711,0 2.05176,-0.9775 2.05176,-2.6543 z"
         style="fill:#ffffff"
         id="path34" />
      <path
         d="m 87.29055,11.68506 h 1.51465 v 1.31641 h 0.03711 a 1.84423,1.84423 0 0 1 1.86035,-1.39747 2.38575,2.38575 0 0 1 0.54492,0.05957 v 1.48535 a 2.22372,2.22372 0 0 0 -0.71387,-0.0957 1.59934,1.59934 0 0 0 -1.6543,1.7793 v 4.58984 h -1.58886 z"
         style="fill:#ffffff"
         id="path36" />
      <path
         d="m 98.56984,17.1499 a 3.10452,3.10452 0 0 1 -3.332,2.36816 c -2.25,0 -3.64746,-1.50781 -3.64746,-3.92773 0,-2.42676 1.4043,-4.001 3.582,-4.001 2.13965,0 3.48535,1.4707 3.48535,3.81738 v 0.54395 h -5.46386 v 0.0957 A 2.01455,2.01455 0 0 0 95.27492,18.23777 1.75062,1.75062 0 0 0 97.062,17.1499 Z M 93.2007,14.84033 h 3.86914 a 1.86157,1.86157 0 0 0 -1.89746,-1.96387 1.95963,1.95963 0 0 0 -1.97168,1.96387 z"
         style="fill:#ffffff"
         id="path38" />
      <path
         d="m 105.08742,8.98779 h 1.23828 v 9.92871 h -1.23828 v -5.01171 h -0.90723 c -0.11328,1.77051 -0.832,3.30957 -2.28418,3.30957 -1.59473,0 -2.30176,-1.85156 -2.30176,-3.82813 0,-1.97754 0.707,-3.791 2.30176,-3.791 1.4209,0 2.13965,1.43848 2.27734,3.15234 h 0.91406 z m -2.1084,4.39844 c 0,-1.458 -0.35059,-2.57129 -1.083,-2.57129 -0.71289,0 -1.03809,1.11328 -1.03809,2.57129 0,1.46387 0.3252,2.56445 1.03809,2.56445 0.73242,0 1.08298,-1.10058 1.08298,-2.56445 z m 5.51074,-4.61133 v 10.6416 h -1.23828 V 8.7749 Z"
         style="fill:#ffffff"
         id="path40" />
      <path
         d="m 114.08742,11.271 a 4.94923,4.94923 0 0 0 2.62793,4.60449 l -0.76953,0.99512 a 5.85416,5.85416 0 0 1 -2.52148,-2.86523 5.85662,5.85662 0 0 1 -2.55274,3.14062 l -0.81348,-0.96387 a 5.33981,5.33981 0 0 0 2.666,-4.86719 V 9.66943 h 1.36328 z m 4.98633,8.14551 h -1.32617 v -5.84962 h -2.13379 v -1.11914 h 2.13379 V 8.7749 h 1.32617 z"
         style="fill:#ffffff"
         id="path42" />
    </g>
    <g
       id="_Group_"
       data-name="&lt;Group&gt;">
      <g
         id="_Group_2"
         data-name="&lt;Group&gt;">
        <path
           id="_Path_"
           data-name="&lt;Path&gt;"
           d="m 24.76888,20.30068 a 4.94881,4.94881 0 0 1 2.35656,-4.15206 5.06566,5.06566 0 0 0 -3.99116,-2.15768 c -1.67924,-0.17626 -3.30719,1.00483 -4.1629,1.00483 -0.87227,0 -2.18977,-0.98733 -3.6085,-0.95814 a 5.31529,5.31529 0 0 0 -4.47292,2.72787 c -1.934,3.34842 -0.49141,8.26947 1.3612,10.97608 0.9269,1.32535 2.01018,2.8058 3.42763,2.7533 1.38706,-0.05753 1.9051,-0.88448 3.5794,-0.88448 1.65876,0 2.14479,0.88448 3.591,0.8511 1.48838,-0.02416 2.42613,-1.33124 3.32051,-2.66914 a 10.962,10.962 0 0 0 1.51842,-3.09251 4.78205,4.78205 0 0 1 -2.91924,-4.39917 z"
           style="fill:#ffffff" />
        <path
           id="_Path_2"
           data-name="&lt;Path&gt;"
           d="m 22.03725,12.21089 a 4.87248,4.87248 0 0 0 1.11452,-3.49062 4.95746,4.95746 0 0 0 -3.20758,1.65961 4.63634,4.63634 0 0 0 -1.14371,3.36139 4.09905,4.09905 0 0 0 3.23677,-1.53038 z"
           style="fill:#ffffff" />
      </g>
    </g>
  </g>
</svg>
